<svg width="151.000000" height="46.000000" viewBox="0 0 151 46" fill="none" xmlns="http://www.w3.org/2000/svg" xmlns:xlink="http://www.w3.org/1999/xlink">
	<desc>
			Created with Pixso.
	</desc>
	<defs/>
	<rect id="Brand/logo-colored" width="150.000000" height="46.000000" transform="translate(1.000000 0.000000)" fill="#FFFFFF" fill-opacity="0"/>
	<path id="Brand" d="M50.2139 32.8062L59.103 32.8062C63.7764 32.8062 66.2656 30.3679 66.2656 27.056C66.2656 23.9778 64.061 22.1187 61.6938 22.0068L61.6938 21.8037C63.8579 21.316 65.4526 19.782 65.4526 17.3336C65.4526 14.2147 63.1362 12 58.5444 12L50.2139 12L50.2139 32.8062ZM122.764 30.307C122.165 31.6073 120.854 33.0602 118.334 33.0602C114.779 33.0602 112.005 30.246 112.005 25.0242C112.005 19.66 114.901 16.9983 118.325 16.9983C120.936 16.9983 122.185 18.5527 122.764 19.8226L122.896 19.8226L122.896 12L127.214 12L127.214 32.8062L122.947 32.8062L122.947 30.307L122.764 30.307ZM54.6128 20.7064L54.6128 15.5558L57.9551 15.5558C59.9058 15.5558 61.0132 16.5615 61.0132 18.0651C61.0132 19.7108 59.6724 20.7064 57.874 20.7064L54.6128 20.7064ZM68.5186 32.8062L72.8462 32.8062L72.8462 23.9778C72.8462 22.0576 74.248 20.7369 76.1582 20.7369C76.7578 20.7369 77.5806 20.8385 77.9868 20.9706L77.9868 17.1304C77.6006 17.0389 77.0625 16.978 76.6255 16.978C74.8779 16.978 73.4458 17.994 72.877 19.9242L72.7144 19.9242L72.7144 17.2015L68.5186 17.2015L68.5186 32.8062ZM88.2607 30.6422C87.4985 32.095 86.0054 33.1007 83.6992 33.1007C80.7222 33.1007 78.5176 31.5363 78.5176 28.4479C78.5176 24.9633 81.2915 23.927 84.3799 23.6425C87.0923 23.3784 88.1587 23.2463 88.1587 22.2405L88.1587 22.1796C88.1587 20.8995 87.3159 20.1578 85.8428 20.1578C84.2881 20.1578 83.3638 20.9198 83.0693 21.9561L79.0664 21.631C79.666 18.7864 82.1245 16.9983 85.8628 16.9983C89.3374 16.9983 92.4868 18.5629 92.4868 22.2811L92.4868 32.8062L88.3823 32.8062L88.3823 30.6422L88.2607 30.6422ZM99.644 23.7848C99.6543 21.7732 100.853 20.5947 102.601 20.5947C104.337 20.5947 105.384 21.7325 105.374 23.6425L105.374 32.8062L109.702 32.8062L109.702 22.8704C109.702 19.2334 107.568 16.9983 104.317 16.9983C102.001 16.9983 100.325 18.1362 99.6235 19.9547L99.4409 19.9547L99.4409 17.2015L95.3164 17.2015L95.3164 32.8062L99.644 32.8062L99.644 23.7848ZM116.425 25.0038C116.425 27.7266 117.583 29.6161 119.706 29.6161C121.789 29.6161 122.988 27.7875 122.988 25.0038C122.988 22.2202 121.809 20.4424 119.706 20.4424C117.562 20.4424 116.425 22.3015 116.425 25.0038ZM54.6128 29.2097L54.6128 23.6831L58.3008 23.6831C60.4136 23.6831 61.7241 24.9022 61.7241 26.6191C61.7241 28.1837 60.6577 29.2097 58.1992 29.2097L54.6128 29.2097ZM82.6528 28.3055C82.6528 29.4943 83.6074 30.1139 84.9385 30.1139C86.8384 30.1139 88.1895 28.8644 88.1895 27.2288L88.1895 25.5728C87.6714 25.9182 86.127 26.1417 85.1821 26.2738C83.6582 26.4871 82.6528 27.0864 82.6528 28.3055Z" fill="#8CB7F5" fill-opacity="1.000000" fill-rule="evenodd"/>
	<g opacity="0.800000">
		<rect id="Brand/logo-symbol" width="44.000000" height="44.000000" transform="translate(0.000000 1.000000)" fill="#FFFFFF" fill-opacity="0"/>
		<path id="2" d="M14.4678 2.91309L37.1851 2.91309C40.9487 2.91309 44 6.28552 44 10.4457L44 35.5544C44 39.7145 40.9487 43.087 37.1851 43.087L14.4678 43.087C10.7036 43.087 7.65234 39.7145 7.65234 35.5544L7.65234 10.4457C7.65234 6.28552 10.7036 2.91309 14.4678 2.91309Z" fill="#0D6EFD" fill-opacity="0.200000" fill-rule="evenodd"/>
		<path id="1" d="M8.13037 2.91309L32.0435 2.91309C36.0054 2.91309 39.2173 6.28552 39.2173 10.4457L39.2173 35.5544C39.2173 39.7145 36.0054 43.087 32.0435 43.087L8.13037 43.087C4.16846 43.087 0.956543 39.7145 0.956543 35.5544L0.956543 10.4457C0.956543 6.28552 4.16846 2.91309 8.13037 2.91309Z" fill="#0D6EFD" fill-opacity="1.000000" fill-rule="evenodd"/>
		<g opacity="0.700000">
			<g opacity="0.300000">
				<path id="Path" d="M15.29 19.3562L14.3096 19.3562C14.2593 19.3562 14.1841 19.4265 14.1812 19.4729L13.459 31.1476L26.9551 31.1451L26.2256 19.4729C26.2227 19.4282 26.146 19.3562 26.0972 19.3562L25.1167 19.3562L25.1167 21.3214C25.1167 21.8641 24.6768 22.3041 24.1338 22.3041C23.5913 22.3041 23.1514 21.8641 23.1514 21.3214L23.1514 19.3562L17.2554 19.3562L17.2554 21.3214C17.2554 21.8641 16.8154 22.3041 16.2729 22.3041C15.73 22.3041 15.29 21.8641 15.29 21.3214L15.29 19.3562Z" fill="#FFFFFF" fill-opacity="1.000000" fill-rule="evenodd"/>
			</g>
			<path id="Combined Shape" d="" fill="#FFFFFF" fill-opacity="1.000000" fill-rule="nonzero"/>
		</g>
	</g>
</svg>
